<?xml version="1.0" encoding="UTF-8"?>
<svg version="1.1" xmlns="http://www.w3.org/2000/svg" width="882" height="520">
<path d="M0 0 C291.06 0 582.12 0 882 0 C882 171.6 882 343.2 882 520 C590.94 520 299.88 520 0 520 C0 348.4 0 176.8 0 0 Z " fill="#2E2F42" transform="translate(0,0)"/>
<path d="M0 0 C0 0.66 0 1.32 0 2 C0.99 2.33 1.98 2.66 3 3 C4.45117188 5.07519531 4.45117188 5.07519531 5.96875 7.828125 C6.54109375 8.85808594 7.1134375 9.88804687 7.703125 10.94921875 C8.29609375 12.03847656 8.8890625 13.12773437 9.5 14.25 C10.06203125 15.26191406 10.6240625 16.27382813 11.203125 17.31640625 C16.98135524 27.78625263 22.44930673 38.40322194 28 49 C28.33 32.5 28.66 16 29 -1 C32.63 -1 36.26 -1 40 -1 C44.0993438 3.0993438 44.12636603 5.61013326 44.14526367 11.18383789 C44.15164352 12.45848404 44.15802338 13.73313019 44.16459656 15.04640198 C44.16612488 16.43848635 44.16723903 17.83057123 44.16796875 19.22265625 C44.17118161 20.64847345 44.1745457 22.07429031 44.17805481 23.50010681 C44.18404063 26.48681402 44.18589517 29.4734923 44.18530273 32.46020508 C44.18520091 36.2927069 44.19887668 40.12502431 44.21607494 43.95748234 C44.22717397 46.90080117 44.22922263 49.84407503 44.22869301 52.78741264 C44.22987539 54.20084712 44.23431157 55.61428268 44.24202538 57.02769661 C44.25178654 59.00029249 44.24769305 60.97294238 44.24291992 62.94555664 C44.24434494 64.06901993 44.24576996 65.19248322 44.24723816 66.34999084 C44 69 44 69 42 71 C37.16688445 72.38089016 32.20460984 72.80656458 27.4375 71.0625 C20.65056574 65.31970948 16.74028114 56.09860736 12.625 48.375 C12.0990625 47.39660156 11.573125 46.41820312 11.03125 45.41015625 C6.6678255 37.28406859 2.34042528 29.13829739 -2 21 C-2 37.5 -2 54 -2 71 C-4.29986731 72.14993366 -5.81469088 72.2316929 -8.375 72.3125 C-9.14585937 72.34988281 -9.91671875 72.38726562 -10.7109375 72.42578125 C-13.94347845 71.82450657 -14.97265753 70.55975861 -17 68 C-17.48101807 65.0133667 -17.48101807 65.0133667 -17.45410156 61.48730469 C-17.45497772 60.52082504 -17.45497772 60.52082504 -17.45587158 59.53482056 C-17.45309334 57.41328323 -17.42201774 55.29316564 -17.390625 53.171875 C-17.38316159 51.69786344 -17.37746912 50.22384194 -17.37347412 48.74981689 C-17.3582254 44.87634733 -17.31895107 41.00348084 -17.2746582 37.13024902 C-17.23368852 33.17545733 -17.21545954 29.22056788 -17.1953125 25.265625 C-17.15245528 17.51014218 -17.08421422 9.7551557 -17 2 C-10.89850879 -1.15567438 -6.7503101 -2.25010337 0 0 Z " fill="#F8F6F6" transform="translate(295,247)"/>
<path d="M0 0 C7.4445023 4.27856586 11.156382 10.39440413 13.375 18.5625 C14.23162967 29.29818358 14.16290372 39.16370814 7.1875 47.875 C2.55006622 52.81765765 -3.54854201 56.20928418 -10.375 56.80078125 C-18.29108013 56.98155712 -24.40265524 55.80459464 -31.625 52.5625 C-31.625 51.9025 -31.625 51.2425 -31.625 50.5625 C-32.22054688 50.31886719 -32.81609375 50.07523437 -33.4296875 49.82421875 C-38.27241785 47.04094134 -40.88569373 41.30995119 -43 36.3125 C-44.85328177 25.1928094 -43.72573385 16.50220344 -38 6.8125 C-27.67237123 -2.97156936 -13.07301273 -5.93780503 0 0 Z " fill="#F8F7F6" transform="translate(395.625,263.4375)"/>
<path d="M0 0 C7.16346315 3.97970175 11.48874961 8.84447273 14.625 16.4375 C16.48344036 24.3162401 16.68778218 31.98497383 12.94921875 39.3046875 C7.99926434 47.27718044 2.44505607 51.49748131 -6.375 54.4375 C-16.0618445 55.53859455 -23.29219445 53.93137685 -31.375 48.4375 C-37.07551056 43.62016714 -40.77854323 36.94135722 -41.7578125 29.546875 C-42.06872776 21.46307832 -40.65223378 14.62829895 -35.609375 8.1796875 C-26.0611044 -2.00764058 -13.08973627 -6.14449543 0 0 Z " fill="#575766" transform="translate(724.375,153.5625)"/>
<path d="M0 0 C1.05272095 0.01232666 1.05272095 0.01232666 2.12670898 0.02490234 C10.44978883 0.20389331 16.26116097 0.83348452 22.6171875 6.421875 C26.73731513 11.41726291 27.59203456 16.22582334 27.59375 22.53515625 C27.60517029 23.7032206 27.60517029 23.7032206 27.61682129 24.8948822 C27.62757724 26.53283496 27.6304938 28.17085605 27.62597656 29.80883789 C27.62500126 32.3092663 27.66672904 34.80665225 27.7109375 37.30664062 C27.71614314 38.90363947 27.71883272 40.50064892 27.71875 42.09765625 C27.7433429 43.2118972 27.7433429 43.2118972 27.76843262 44.34864807 C27.71629673 48.27619022 27.28589037 50.04907309 24.80273438 53.15014648 C16.15856551 59.92882048 5.64067228 59.88802955 -4.875 59.25 C-11.46119377 58.11045328 -16.40084004 55.20716586 -20.875 50.25 C-23.69959272 45.82889835 -23.52781647 40.33380826 -22.875 35.25 C-20.49534047 30.3076302 -17.60207607 27.92205889 -12.875 25.25 C-9.76188884 24.38140529 -6.63787914 23.92538268 -3.4375 23.5 C-2.61701172 23.37496094 -1.79652344 23.24992187 -0.95117188 23.12109375 C3.78849828 22.43265004 8.33795082 22.12114269 13.125 22.25 C12.7267125 20.95254828 12.30556078 19.6621019 11.875 18.375 C11.64296875 17.65570313 11.4109375 16.93640625 11.171875 16.1953125 C9.81690638 13.67749768 8.81615216 13.16583712 6.125 12.25 C-1.94949085 11.32617267 -9.22766229 12.72095918 -16.875 15.25 C-19.20249345 11.75875983 -19.37799316 10.35777749 -18.875 6.25 C-14.57922761 0.06408776 -6.95901626 -0.09889967 0 0 Z " fill="#FAF8F8" transform="translate(499.875,260.75)"/>
<path d="M0 0 C4.30444189 2.92893661 6.54421792 6.88984169 8.45703125 11.671875 C9.04430436 16.28695516 9.58815755 21.4096224 7.45703125 25.671875 C4.7109375 26.41796875 4.7109375 26.41796875 1.01953125 27.109375 C0.36299561 27.23352783 -0.29354004 27.35768066 -0.9699707 27.4855957 C-3.15886892 27.89369537 -5.35023638 28.28492223 -7.54296875 28.671875 C-8.33767578 28.81302734 -9.13238281 28.95417969 -9.95117188 29.09960938 C-12.37643413 29.52668743 -14.80293499 29.94541348 -17.23046875 30.359375 C-17.99609131 30.49077881 -18.76171387 30.62218262 -19.55053711 30.75756836 C-22.94896406 31.32125976 -26.08686987 31.671875 -29.54296875 31.671875 C-28.8316421 32.97345143 -28.09800977 34.26285022 -27.35546875 35.546875 C-26.94941406 36.26617187 -26.54335938 36.98546875 -26.125 37.7265625 C-24.10648919 40.2085832 -22.61155663 40.80966371 -19.54296875 41.671875 C-11.4081624 42.49281876 -4.16437523 41.56216008 3.45703125 38.671875 C5.74835123 40.73711808 6.40448975 41.40332956 7.01953125 44.546875 C6.38394031 48.07793576 5.30897956 49.52824285 2.4140625 51.63671875 C-5.051619 55.58563212 -15.36079534 55.9027286 -23.4375 53.984375 C-31.96226237 51.18554741 -37.29966567 47.52208584 -41.41796875 39.484375 C-45.69653618 30.26137039 -45.65867629 20.92037516 -42.63671875 11.2109375 C-39.60611794 4.1756142 -34.25938646 -0.37217425 -27.3515625 -3.484375 C-17.89273703 -6.3259693 -8.55737101 -4.46928747 0 0 Z " fill="#FAF8F7" transform="translate(673.54296875,265.328125)"/>
<path d="M0 0 C1.77007714 -0.08114106 3.54122098 -0.13925505 5.3125 -0.1875 C6.29863281 -0.22230469 7.28476562 -0.25710937 8.30078125 -0.29296875 C11 0 11 0 12.82844543 1.26667786 C14.93599531 4.38481078 14.48390415 8.17827015 14.51171875 11.82421875 C14.52966995 12.68561966 14.54762115 13.54702057 14.56611633 14.43452454 C14.62029298 17.18546658 14.65413823 19.93623441 14.6875 22.6875 C14.72066663 24.55275866 14.75515567 26.4179943 14.79101562 28.28320312 C14.87602356 32.85534318 14.94279943 37.42743091 15 42 C15.89924194 41.04577148 15.89924194 41.04577148 16.81665039 40.07226562 C19.059363 37.70992149 21.3177001 35.36399622 23.58764648 33.02783203 C24.564857 32.01551893 25.5356812 30.99699882 26.49975586 29.97216797 C27.89084723 28.49570276 29.30375885 27.04345248 30.72265625 25.59375 C31.56578369 24.71396484 32.40891113 23.83417969 33.27758789 22.92773438 C36.75564944 20.4649262 38.82364909 20.51692264 43 21 C45.5 22.5625 45.5 22.5625 47 25 C47.20033532 28.53925727 46.8673269 30.8383076 44.7109375 33.7265625 C39.95590519 38.6618804 34.40733946 42.81121592 29 47 C30.43753955 50.31002696 32.22483544 52.43889464 34.8125 54.9375 C35.52664063 55.63230469 36.24078125 56.32710938 36.9765625 57.04296875 C37.64429688 57.68878906 38.31203125 58.33460938 39 59 C39.886875 59.9075 40.77375 60.815 41.6875 61.75 C43.96513054 64.09187621 43.96513054 64.09187621 46.8125 65.9375 C49 68 49 68 49.5625 71 C49 74 49 74 47.4375 76.375 C43.91751657 78.72165562 42.16889057 78.7642966 38 78 C32.04884844 74.12237959 27.55252452 68.36863582 23 63 C21.52487622 61.32975402 20.04570871 59.66307057 18.5625 58 C17.386875 56.68 16.21125 55.36 15 54 C14.67 61.59 14.34 69.18 14 77 C10.86967764 78.56516118 7.40926916 78.540337 4 78 C1.89898682 76.93107605 1.89898682 76.93107605 0 75 C-0.38277791 72.44713946 -0.50722555 70.32544645 -0.45410156 67.7746582 C-0.45468567 67.04270233 -0.45526978 66.31074646 -0.45587158 65.55661011 C-0.45308507 63.13751783 -0.42196838 60.71965821 -0.390625 58.30078125 C-0.38316458 56.62355726 -0.37747071 54.94632456 -0.37347412 53.26908875 C-0.35820201 48.85476614 -0.31890698 44.44097005 -0.2746582 40.02685547 C-0.23373929 35.5225334 -0.21547035 31.01812624 -0.1953125 26.51367188 C-0.15241395 17.67554993 -0.08414381 8.83781875 0 0 Z " fill="#FBF9F9" transform="translate(695,241)"/>
<path d="M0 0 C0.495 1.98 0.495 1.98 1 4 C-6.73015753 7.22715314 -14.59033112 8.59940985 -22.80078125 10.10546875 C-28.12108445 11.11549003 -33.13735039 12.2089643 -38.15771484 14.25439453 C-40.07491557 15.03031966 -42.00585589 15.68518787 -43.97265625 16.32421875 C-51.3175978 18.75354192 -58.34676993 21.42623439 -65.1875 25.0625 C-66.08577515 25.53659302 -66.08577515 25.53659302 -67.00219727 26.02026367 C-74.43923308 30.11856523 -78.75162513 33.95051994 -81.36328125 42.16015625 C-82.52497414 47.34144909 -82.33030574 51.34913436 -79.93359375 56.125 C-71.84643891 68.29029275 -56.97359013 70.86158866 -43.6015625 73.59375 C-35.75682602 75.09817195 -28.11728271 75.42970018 -20.14550781 75.33618164 C-18.00026786 75.31250296 -15.85627644 75.31566834 -13.7109375 75.32226562 C6.65707076 75.5282812 6.65707076 75.5282812 25 68 C28.16011872 64.74693662 28.14448185 62.0507694 28.1875 57.6875 C28.13958275 56.12448483 28.08187055 54.56160485 28 53 C27.34 53 26.68 53 26 53 C25.4225 52.38125 24.845 51.7625 24.25 51.125 C19.12780481 46.28737121 12.37913828 46.46499415 5.6875 46.54296875 C-1.07135498 47.38066582 -6.87110618 50.55033224 -12.1953125 54.71875 C-14 56 -14 56 -16.25 55.6875 C-16.8275 55.460625 -17.405 55.23375 -18 55 C-17.44431971 51.46800475 -16.41585517 50.11274588 -13.5625 48 C-5.84409903 42.65544819 0.78304514 40.64301829 10.125 40.5 C10.87700684 40.48146973 11.62901367 40.46293945 12.40380859 40.44384766 C18.95668452 40.51705613 24.15871136 42.44445766 29.05859375 46.8515625 C29.51363281 47.43679688 29.96867187 48.02203125 30.4375 48.625 C30.91058594 49.21539062 31.38367188 49.80578125 31.87109375 50.4140625 C35.00851256 54.8216474 34.52469945 59.78256607 34 65 C30.79844482 71.64938384 25.75954131 75.49477271 19.0625 78.1875 C-7.10490803 86.79382461 -44.33718124 84.5086107 -69.4375 72.625 C-78.17342956 67.8362014 -84.5864453 62.9102309 -87.60546875 53.015625 C-89.02150907 45.78120117 -88.29183322 39.8163626 -84.6484375 33.375 C-75.21726706 19.78696297 -57.02374276 14.14729709 -42 9 C-41.36126953 8.77715332 -40.72253906 8.55430664 -40.06445312 8.32470703 C-31.94929011 5.52147433 -23.78942121 3.39711132 -15.375 1.6875 C-14.53356445 1.51589355 -13.69212891 1.34428711 -12.82519531 1.16748047 C-8.48508342 0.33002226 -4.44383306 -0.19414805 0 0 Z " fill="#C0481E" transform="translate(179,245)"/>
<path d="M0 0 C0.680625 0.825 1.36125 1.65 2.0625 2.5 C2.50078125 2.9846875 2.9390625 3.469375 3.390625 3.96875 C8.85009934 10.1185027 9.5298289 15.25760738 9.3671875 23.28125 C8.66159522 30.73519923 4.78284811 35.54268639 -0.5703125 40.5625 C-19.25807065 55.85809083 -56.08437432 67.90312504 -79.9375 66.5 C-79.6075 64.85 -79.2775 63.2 -78.9375 61.5 C-77.30941406 61.20996094 -77.30941406 61.20996094 -75.6484375 60.9140625 C-74.20308332 60.65127083 -72.75777312 60.38823714 -71.3125 60.125 C-70.59964844 59.99867188 -69.88679688 59.87234375 -69.15234375 59.7421875 C-64.93059761 58.96755518 -61.00439721 57.90178159 -56.9375 56.5 C-55.46393897 56.20016236 -53.98435534 55.92827778 -52.5 55.6875 C-34.90760484 52.27405019 -9.52116978 44.55732627 1.0390625 29.296875 C4.14411573 23.84525482 3.53048873 17.86154364 2.0625 12 C1.7325 10.845 1.4025 9.69 1.0625 8.5 C0.4025 8.5 -0.2575 8.5 -0.9375 8.5 C-1.51371094 7.74847656 -2.08992188 6.99695313 -2.68359375 6.22265625 C-10.76914918 -3.5444705 -26.0906508 -5.68028883 -37.9375 -7.5 C-38.95034058 -7.65577515 -38.95034058 -7.65577515 -39.98364258 -7.81469727 C-47.28973236 -8.77807192 -54.64300431 -8.69934754 -62 -8.6875 C-62.68836945 -8.68689575 -63.37673889 -8.6862915 -64.08596802 -8.68566895 C-85.69073926 -9.38342544 -85.69073926 -9.38342544 -104.375 -0.25 C-106.41658253 3.34318526 -107.25403818 6.36065458 -106.9375 10.5 C-105.10575118 14.72098642 -103.53747226 16.1727424 -99.5 18.375 C-90.06503976 21.2807577 -81.35081785 19.95156497 -72.5390625 15.8828125 C-70.37170889 14.73079572 -68.37794876 13.5359442 -66.375 12.125 C-65.570625 11.58875 -64.76625 11.0525 -63.9375 10.5 C-62.9475 10.83 -61.9575 11.16 -60.9375 11.5 C-61.23980224 14.62909337 -61.46285918 16.08385027 -63.87109375 18.1953125 C-75.04414588 24.57493353 -85.12414937 26.73437514 -97.9375 25.5 C-102.37607096 24.18962594 -105.87822194 22.00025507 -108.9375 18.5 C-108.9375 17.84 -108.9375 17.18 -108.9375 16.5 C-109.5975 16.5 -110.2575 16.5 -110.9375 16.5 C-113.06887287 12.23725425 -113.73380566 8.18563014 -112.9375 3.5 C-110.78246646 -2.50402368 -107.69858547 -6.48291505 -102.078125 -9.51171875 C-75.26606401 -21.89027976 -23.08815452 -19.64949321 0 0 Z " fill="#C1481D" transform="translate(248.9375,288.5)"/>
<path d="M0 0 C3.40825197 2.78211477 4.73315433 5.26935153 6 9.4375 C6.33 10.49839844 6.66 11.55929687 7 12.65234375 C7.33 13.75707031 7.66 14.86179687 8 16 C8.66593545 18.16689152 9.33260058 20.33355893 10 22.5 C10.48919922 24.10101563 10.48919922 24.10101563 10.98828125 25.734375 C12.95169832 34.44931121 12.95169832 34.44931121 17 42 C19.67918305 35.20944387 21.93241485 28.42459944 23.75 21.3515625 C24.20040649 19.60045166 24.20040649 19.60045166 24.65991211 17.81396484 C25.25841976 15.45069336 25.84274348 13.08378138 26.41235352 10.71337891 C26.69006592 9.61687012 26.96777832 8.52036133 27.25390625 7.390625 C27.49439697 6.40094727 27.7348877 5.41126953 27.98266602 4.39160156 C29 2 29 2 30.92163086 0.68261719 C34.6613872 -0.54566412 37.71533728 -0.50710371 41.375 0.9375 C43.99891809 4.26785758 43.3565007 7.90146279 43 12 C42.37854844 14.92727637 41.45372728 17.68806909 40.4375 20.5 C40.1701001 21.26828125 39.9027002 22.0365625 39.62719727 22.828125 C30.32052555 49.12853755 30.32052555 49.12853755 25 57 C22.14846484 57.95051172 20.10100259 58.22656679 17.125 58.3125 C16.28195312 58.34988281 15.43890625 58.38726562 14.5703125 58.42578125 C10.93699336 57.82390923 9.55833275 56.66458938 7 54 C5.29636421 51.09238535 4.02148397 48.05447043 2.75 44.9375 C2.37375488 44.03588135 1.99750977 43.1342627 1.60986328 42.20532227 C-1.58167296 34.38229519 -4.40550285 26.4352939 -7.125 18.4375 C-7.72876465 16.68070923 -7.72876465 16.68070923 -8.34472656 14.88842773 C-8.8895166 13.24015991 -8.8895166 13.24015991 -9.4453125 11.55859375 C-9.77031738 10.58204834 -10.09532227 9.60550293 -10.43017578 8.59936523 C-11.01981612 5.90960489 -11.02763055 4.53122758 -10 2 C-6.84015718 -0.34062431 -3.83352545 -0.47919068 0 0 Z " fill="#F8F7F6" transform="translate(427,261)"/>
<path d="M0 0 C0.88429688 -0.02578125 1.76859375 -0.0515625 2.6796875 -0.078125 C5.125 0.25 5.125 0.25 6.93359375 1.31640625 C8.77973218 4.31259813 8.40799536 6.96783542 8.3125 10.4375 C8.28542969 11.70980469 8.25835938 12.98210937 8.23046875 14.29296875 C8.19566406 15.26878906 8.16085937 16.24460937 8.125 17.25 C9.41277344 17.23839844 10.70054687 17.22679687 12.02734375 17.21484375 C13.70572772 17.2054673 15.38411326 17.19636695 17.0625 17.1875 C18.33770508 17.17493164 18.33770508 17.17493164 19.63867188 17.16210938 C20.44755859 17.15888672 21.25644531 17.15566406 22.08984375 17.15234375 C22.8387085 17.14710693 23.58757324 17.14187012 24.35913086 17.13647461 C26.125 17.25 26.125 17.25 27.125 18.25 C27.39814815 23.98611111 27.39814815 23.98611111 27.125 26.25 C25.125 28.25 25.125 28.25 21.4296875 28.4453125 C19.95299892 28.432009 18.47637642 28.40814835 17 28.375 C16.24589844 28.36597656 15.49179687 28.35695313 14.71484375 28.34765625 C12.85142746 28.3240687 10.98817407 28.28819719 9.125 28.25 C9.19388572 32.32567513 9.281854 36.40044801 9.38745117 40.4753418 C9.42068549 41.86129377 9.44872226 43.24738061 9.47143555 44.63354492 C9.50500617 46.62706843 9.55888 48.62021741 9.61328125 50.61328125 C9.63946533 51.81251221 9.66564941 53.01174316 9.69262695 54.24731445 C9.89600901 57.20968588 9.89600901 57.20968588 11.41088867 59.14916992 C14.93383912 61.4116658 19.67715583 60.53956883 23.625 59.75 C24.12 59.585 24.615 59.42 25.125 59.25 C27.125 62.25 27.125 62.25 27.0625 65.75 C26.125 69.25 26.125 69.25 23.75 71.125 C17.74756727 73.69747117 11.96184587 74.34624168 5.609375 72.53125 C0.95329166 70.61948068 -2.21659238 68.68067937 -4.875 64.25 C-5.95639462 60.94419845 -6.00173497 57.85972756 -6.00439453 54.39575195 C-6.00754669 53.2180574 -6.01069885 52.04036285 -6.01394653 50.82698059 C-6.0119223 49.56020981 -6.00989807 48.29343903 -6.0078125 46.98828125 C-6.00876923 45.68674606 -6.00972595 44.38521088 -6.01071167 43.04423523 C-6.01218362 40.29469614 -6.0100492 37.5451896 -6.00537109 34.7956543 C-5.99965722 31.26468236 -6.00296641 27.73378616 -6.00894356 24.20281696 C-6.01341451 20.83963222 -6.01029016 17.47646815 -6.0078125 14.11328125 C-6.00983673 12.84043777 -6.01186096 11.5675943 -6.01394653 10.25617981 C-6.01079437 9.08794174 -6.00764221 7.91970367 -6.00439453 6.71606445 C-6.00359894 5.68222122 -6.00280334 4.64837799 -6.00198364 3.58320618 C-5.77348217 -0.6152956 -3.72760668 0.06482794 0 0 Z " fill="#F9F8F7" transform="translate(547.875,246.75)"/>
<path d="M0 0 C3.59106309 2.62956141 6.41749022 4.97342069 8.6875 8.875 C9.67644696 15.70253765 9.34616209 21.97393212 5.6875 27.875 C0.69350688 32.96147448 -2.72795751 35.06624015 -9.9375 35.375 C-15.00280813 35.34382887 -18.09094888 35.06721347 -22 31.75 C-27.30221871 26.05039873 -28.90179743 21.30161774 -28.66015625 13.55859375 C-27.95907368 8.14686653 -25.35079214 4.6078143 -21.3125 1 C-15.14111759 -3.37139587 -6.5842111 -3.89805287 0 0 Z " fill="#BAB8BF" transform="translate(721.3125,163.125)"/>
<path d="M0 0 C2.94921875 1.76953125 2.94921875 1.76953125 5 4 C5.3671739 6.91610574 4.63295417 9.07867306 4 12 C2.46279297 12.07347656 2.46279297 12.07347656 0.89453125 12.1484375 C-0.4661706 12.22351071 -1.82684644 12.29905655 -3.1875 12.375 C-3.86103516 12.4059375 -4.53457031 12.436875 -5.22851562 12.46875 C-9.42792339 12.71456899 -11.97626243 13.39050497 -16 15 C-16.33 28.86 -16.66 42.72 -17 57 C-19.29986731 58.14993366 -20.81469088 58.2316929 -23.375 58.3125 C-24.14585937 58.34988281 -24.91671875 58.38726562 -25.7109375 58.42578125 C-29.06787741 57.80136751 -29.97808209 56.76884186 -32 54 C-32.60704978 50.72388686 -32.5603122 47.48425408 -32.53125 44.16015625 C-32.5350769 43.20104843 -32.53890381 42.24194061 -32.54284668 41.25376892 C-32.54556627 39.22719268 -32.53820183 37.20058137 -32.52148438 35.17407227 C-32.50009899 32.07683721 -32.52127251 28.98192799 -32.546875 25.88476562 C-32.54423127 23.91405739 -32.53910537 21.9433506 -32.53125 19.97265625 C-32.54339539 18.58651878 -32.54339539 18.58651878 -32.55578613 17.17237854 C-32.49471478 12.96994294 -32.38109615 10.61833912 -30.13598633 6.97558594 C-22.3904613 -0.18829434 -10.06765753 -1.72147446 0 0 Z " fill="#F8F6F6" transform="translate(619,261)"/>
<path d="M0 0 C3.48465765 2.50895351 5.43765697 5.04341699 7 9 C7.6549191 16.45927335 8.28562562 24.57156158 4 31 C0.76909056 33.93035973 -1.75470242 35.24242992 -6.0625 35.4375 C-11.43949116 34.84005654 -13.69218468 33.59762914 -17.09765625 29.4375 C-20.66441555 22.99243187 -20.19950677 15.15950272 -19 8 C-15.65464299 -0.57318609 -8.43151429 -1.83241717 0 0 Z " fill="#313246" transform="translate(387,273)"/>
<path d="M0 0 C1.875 0.125 1.875 0.125 4 1 C4.73080266 2.97746603 5.39421747 4.98072489 6 7 C8.31041382 10.23457935 11.27007179 10.92246518 15 12 C14.9375 13.8125 14.9375 13.8125 14 16 C12.26575656 16.65443149 10.53076162 17.30708373 8.7890625 17.94140625 C5.45389202 19.91483682 4.33717577 23.50340995 3 27 C1.078125 26.70703125 1.078125 26.70703125 -1 26 C-1.65443149 24.26575656 -2.30708373 22.53076162 -2.94140625 20.7890625 C-4.91483682 17.45389202 -8.50340995 16.33717577 -12 15 C-11.67 13.68 -11.34 12.36 -11 11 C-9.329375 10.5978125 -9.329375 10.5978125 -7.625 10.1875 C-3.78159049 9.34190981 -3.78159049 9.34190981 -2 6 C-1.29835358 4.01200182 -0.62627128 2.01301483 0 0 Z " fill="#C2481F" transform="translate(117,276)"/>
<path d="M0 0 C1.8125 0.5625 1.8125 0.5625 4 2 C4.433125 3.155 4.86625 4.31 5.3125 5.5 C6.68310765 9.35896297 6.68310765 9.35896297 10.6875 10.4375 C11.780625 10.623125 12.87375 10.80875 14 11 C13.9375 13.3125 13.9375 13.3125 13 16 C11.88625 16.45375 10.7725 16.9075 9.625 17.375 C5.69141222 19.12732099 5.69141222 19.12732099 4.0625 22.6875 C3.5365625 24.3271875 3.5365625 24.3271875 3 26 C1.68 26 0.36 26 -1 26 C-4 20.25 -4 20.25 -4 18 C-4.84884766 17.83564453 -4.84884766 17.83564453 -5.71484375 17.66796875 C-6.81505859 17.43013672 -6.81505859 17.43013672 -7.9375 17.1875 C-8.66839844 17.03667969 -9.39929688 16.88585937 -10.15234375 16.73046875 C-10.76207031 16.48941406 -11.37179688 16.24835938 -12 16 C-12.33 15.01 -12.66 14.02 -13 13 C-8.21518987 10.07594937 -8.21518987 10.07594937 -5.875 9.25 C-2.88413627 7.25609084 -2.24790548 4.26832389 -1 1 C-0.67 0.67 -0.34 0.34 0 0 Z " fill="#C2481E" transform="translate(199,234)"/>
<path d="M0 0 C1.32 0.33 2.64 0.66 4 1 C4.268125 2.11375 4.53625 3.2275 4.8125 4.375 C5.65809019 8.21840951 5.65809019 8.21840951 9 10 C10.98799818 10.70164642 12.98698517 11.37372872 15 12 C14.67 13.32 14.34 14.64 14 16 C12.741875 16.144375 11.48375 16.28875 10.1875 16.4375 C7.95170303 16.86642701 7.95170303 16.86642701 6 18 C4.38701861 20.87394404 3.6360833 23.77982829 3 27 C1.078125 26.70703125 1.078125 26.70703125 -1 26 C-1.65443149 24.26575656 -2.30708373 22.53076162 -2.94140625 20.7890625 C-4.91483682 17.45389202 -8.50340995 16.33717577 -12 15 C-11.70703125 13.078125 -11.70703125 13.078125 -11 11 C-9.26575656 10.34556851 -7.53076162 9.69291627 -5.7890625 9.05859375 C-2.45389202 7.08516318 -1.33717577 3.49659005 0 0 Z " fill="#C4481E" transform="translate(148,339)"/>
<path d="M0 0 C0 4.62 0 9.24 0 14 C-3.70867397 14.92716849 -6.70112036 15.19772184 -10.5 15.25 C-12.18609375 15.28867187 -12.18609375 15.28867187 -13.90625 15.328125 C-17.29648004 14.96855515 -18.66212692 14.45027083 -21 12 C-21.5 8.5 -21.5 8.5 -21 5 C-17.99668355 2.02495006 -15.17131124 1.41871805 -11.0625 0.8125 C-9.53302734 0.57466797 -9.53302734 0.57466797 -7.97265625 0.33203125 C-5 0 -5 0 0 0 Z " fill="#313246" transform="translate(513,293)"/>
<path d="M0 0 C2.75329021 1.79562405 4.52627461 3.05254922 6 6 C6.43023798 9.87214182 6.31669086 11.52496371 4.125 14.8125 C1.40819426 17.60921179 0.60386898 17.94303123 -3.3125 18.3125 C-7.57536111 17.95124058 -9.01992054 16.98007946 -12 14 C-13.42662219 11.14675563 -13.31033868 9.16545451 -13 6 C-9.24647283 0.36970925 -6.73139654 -0.57045733 0 0 Z " fill="#FCFAF9" transform="translate(715,170)"/>
<path d="M0 0 C3.0625 2.4375 3.0625 2.4375 5 5 C5.33 5.33 5.66 5.66 6 6 C6.04063832 7.66617115 6.042721 9.33388095 6 11 C2.95919579 11.50579714 -0.08246646 12.00480759 -3.125 12.5 C-3.9809375 12.64308594 -4.836875 12.78617187 -5.71875 12.93359375 C-10.19671505 13.65695734 -14.44563435 14.17918816 -19 14 C-18.36312893 8.5229088 -17.13898324 4.87971254 -12.9375 1.1875 C-8.61510371 -0.55985169 -4.59140634 -0.83685731 0 0 Z " fill="#2E2F44" transform="translate(662,272)"/>
<path d="M0 0 C20.13 0 40.26 0 61 0 C61 1.32 61 2.64 61 4 C40.87 4 20.74 4 0 4 C0 2.68 0 1.36 0 0 Z " fill="#BCBCC2" transform="translate(670,346)"/>
<path d="M0 0 C11 0 11 0 13.6875 1.6875 C15.27965567 4.49272666 15.63416883 5.82915585 15 9 C13 11.3125 13 11.3125 11 13 C11.66 14.11375 12.32 15.2275 13 16.375 C15 19.75 15 19.75 15 22 C14.01 22 13.02 22 12 22 C8 15.25 8 15.25 8 13 C6.35 13 4.7 13 3 13 C3 15.97 3 18.94 3 22 C2.01 22 1.02 22 0 22 C0 14.74 0 7.48 0 0 Z " fill="#E6E5E7" transform="translate(406,337)"/>
<path d="M0 0 C1.32 0 2.64 0 4 0 C6.64 4.62 9.28 9.24 12 14 C12.33 9.38 12.66 4.76 13 0 C13.99 0 14.98 0 16 0 C16 7.26 16 14.52 16 22 C12 21 12 21 9.859375 17.83984375 C9.14296756 16.54633032 8.44025765 15.24515477 7.75 13.9375 C7.38648438 13.27427734 7.02296875 12.61105469 6.6484375 11.92773438 C5.75383252 10.29154895 4.87533933 8.64657276 4 7 C3.67 11.95 3.34 16.9 3 22 C2.01 22 1.02 22 0 22 C0 14.74 0 7.48 0 0 Z " fill="#E5E4E6" transform="translate(503,337)"/>
<path d="M0 0 C1.65 0.33 3.3 0.66 5 1 C6.00736628 3.93502595 7.00460504 6.87339461 8 9.8125 C8.28617188 10.64587891 8.57234375 11.47925781 8.8671875 12.33789062 C9.13789062 13.14033203 9.40859375 13.94277344 9.6875 14.76953125 C9.93886719 15.50792236 10.19023438 16.24631348 10.44921875 17.00708008 C11 19 11 19 11 22 C10.01 22 9.02 22 8 22 C7.34 20.02 6.68 18.04 6 16 C3.36 15.67 0.72 15.34 -2 15 C-2.33 17.31 -2.66 19.62 -3 22 C-3.99 22 -4.98 22 -6 22 C-5.40421223 16.73378394 -4.18691204 12.05591981 -2.4375 7.0625 C-2.20353516 6.37865234 -1.96957031 5.69480469 -1.72851562 4.99023438 C-1.15788171 3.32491499 -0.57972902 1.66217507 0 0 Z " fill="#E9E9EA" transform="translate(556,337)"/>
<path d="M0 0 C1.65 0.33 3.3 0.66 5 1 C6.00736628 3.93502595 7.00460504 6.87339461 8 9.8125 C8.28617187 10.64587891 8.57234375 11.47925781 8.8671875 12.33789062 C9.13789063 13.14033203 9.40859375 13.94277344 9.6875 14.76953125 C9.93886719 15.50792236 10.19023437 16.24631348 10.44921875 17.00708008 C11 19 11 19 11 22 C10.01 22 9.02 22 8 22 C7.34 20.02 6.68 18.04 6 16 C3.36 15.67 0.72 15.34 -2 15 C-2.33 17.31 -2.66 19.62 -3 22 C-3.99 22 -4.98 22 -6 22 C-5.40421223 16.73378394 -4.18691204 12.05591981 -2.4375 7.0625 C-2.20353516 6.37865234 -1.96957031 5.69480469 -1.72851562 4.99023438 C-1.15788171 3.32491499 -0.57972902 1.66217507 0 0 Z " fill="#EAEAEB" transform="translate(367,337)"/>
<path d="M0 0 C1.94238281 0.14428711 1.94238281 0.14428711 4 1 C5.09667969 3.04125977 5.09667969 3.04125977 5.921875 5.69140625 C6.22480469 6.63564453 6.52773438 7.57988281 6.83984375 8.55273438 C7.14019531 9.54595703 7.44054687 10.53917969 7.75 11.5625 C8.22373047 13.05813477 8.22373047 13.05813477 8.70703125 14.58398438 C9.48631851 17.05172736 10.24980688 19.52328739 11 22 C9.68 22 8.36 22 7 22 C6.67 19.69 6.34 17.38 6 15 C3.03 15 0.06 15 -3 15 C-3.33 17.31 -3.66 19.62 -4 22 C-4.99 22 -5.98 22 -7 22 C-6.42208517 16.89070756 -5.2819361 12.48388389 -3.5 7.625 C-3.0565625 6.40039062 -2.613125 5.17578125 -2.15625 3.9140625 C-1 1 -1 1 0 0 Z " fill="#EFEEEF" transform="translate(430,337)"/>
<path d="M0 0 C1.91015625 0.1328125 1.91015625 0.1328125 3.91015625 1.1328125 C3.58015625 2.1228125 3.25015625 3.1128125 2.91015625 4.1328125 C0.27015625 3.8028125 -2.36984375 3.4728125 -5.08984375 3.1328125 C-7.6324103 5.67537905 -8.34713046 7.62757245 -8.46484375 11.1328125 C-8.34743458 13.75495055 -8.06033509 15.19838731 -6.96484375 17.6328125 C-4.3310296 19.73986382 -2.36373118 19.42382472 0.91015625 19.1328125 C1.24015625 17.1528125 1.57015625 15.1728125 1.91015625 13.1328125 C0.59015625 13.1328125 -0.72984375 13.1328125 -2.08984375 13.1328125 C-2.08984375 12.1428125 -2.08984375 11.1528125 -2.08984375 10.1328125 C0.22015625 10.1328125 2.53015625 10.1328125 4.91015625 10.1328125 C4.99106596 11.75699995 5.0493062 13.38232995 5.09765625 15.0078125 C5.14986328 16.36519531 5.14986328 16.36519531 5.203125 17.75 C5.10644531 18.53632813 5.00976562 19.32265625 4.91015625 20.1328125 C1.24107068 22.57886955 -1.82603144 22.97227652 -6.08984375 22.1328125 C-9.28227565 19.55169735 -11.78870419 17.32252727 -12.36328125 13.14453125 C-12.56142026 8.61019623 -12.62141336 6.78705202 -9.65234375 3.1328125 C-8.80671875 2.4728125 -7.96109375 1.8128125 -7.08984375 1.1328125 C-5.19099279 -0.76603846 -2.51736472 0.00913744 0 0 Z " fill="#E8E8E9" transform="translate(581.08984375,336.8671875)"/>
<path d="M0 0 C1.98828125 0.50390625 1.98828125 0.50390625 3.98828125 3.50390625 C1.98828125 4.50390625 1.98828125 4.50390625 -1.44921875 3.87890625 C-4.86057773 3.13055206 -4.86057773 3.13055206 -6.7109375 4.66796875 C-8.40782673 7.06297757 -8.41274958 8.58845331 -8.38671875 11.50390625 C-8.39445313 12.37015625 -8.4021875 13.23640625 -8.41015625 14.12890625 C-8.18467847 16.5422653 -8.18467847 16.5422653 -6.71875 18.3046875 C-3.97289065 20.23370082 -1.25423584 19.68744495 1.98828125 19.50390625 C1.98828125 17.52390625 1.98828125 15.54390625 1.98828125 13.50390625 C0.33828125 13.50390625 -1.31171875 13.50390625 -3.01171875 13.50390625 C-3.01171875 12.51390625 -3.01171875 11.52390625 -3.01171875 10.50390625 C-0.70171875 10.50390625 1.60828125 10.50390625 3.98828125 10.50390625 C4.04223603 12.12854467 4.0810532 13.75369166 4.11328125 15.37890625 C4.13648438 16.28382813 4.1596875 17.18875 4.18359375 18.12109375 C3.98828125 20.50390625 3.98828125 20.50390625 1.98828125 22.50390625 C-1.09286324 23.13345247 -3.925586 23.08920729 -7.01171875 22.50390625 C-10.48057227 19.81377495 -11.65151351 18.3436322 -12.484375 14.08984375 C-12.73201937 9.88623933 -12.48313584 6.42093765 -10.07421875 2.87890625 C-6.42336854 0.04763466 -4.48164301 -0.1129826 0 0 Z " fill="#F3F2F2" transform="translate(536.01171875,336.49609375)"/>
<path d="M0 0 C0.99 0 1.98 0 3 0 C5.97 5.28 8.94 10.56 12 16 C12.33 10.72 12.66 5.44 13 0 C13.66 0 14.32 0 15 0 C15 7.26 15 14.52 15 22 C14.01 22 13.02 22 12 22 C9.03 16.72 6.06 11.44 3 6 C2.67 11.28 2.34 16.56 2 22 C1.34 22 0.68 22 0 22 C0 14.74 0 7.48 0 0 Z " fill="#FCFCFB" transform="translate(609,337)"/>
<path d="M0 0 C4.29 0 8.58 0 13 0 C13 0.66 13 1.32 13 2 C9.7 2 6.4 2 3 2 C3 4.31 3 6.62 3 9 C5.97 9 8.94 9 12 9 C12 9.99 12 10.98 12 12 C9.03 12 6.06 12 3 12 C3 14.64 3 17.28 3 20 C6.3 20 9.6 20 13 20 C13 20.66 13 21.32 13 22 C8.71 22 4.42 22 0 22 C0 14.74 0 7.48 0 0 Z " fill="#E3E3E5" transform="translate(460,337)"/>
<path d="M0 0 C4.29 0 8.58 0 13 0 C13 0.66 13 1.32 13 2 C9.7 2 6.4 2 3 2 C3 4.31 3 6.62 3 9 C5.64 9 8.28 9 11 9 C11 9.99 11 10.98 11 12 C8.36 12 5.72 12 3 12 C3 14.64 3 17.28 3 20 C6.3 20 9.6 20 13 20 C13 20.66 13 21.32 13 22 C8.71 22 4.42 22 0 22 C0 14.74 0 7.48 0 0 Z " fill="#EFEFEF" transform="translate(591,337)"/>
<path d="M0 0 C1.32 0.33 2.64 0.66 4 1 C5.13617319 3.58628896 5.97028287 5.87572006 6.75 8.5625 C7.4925 11.016875 8.235 13.47125 9 16 C10.65 10.72 12.3 5.44 14 0 C14.99 0 15.98 0 17 0 C16.40421223 5.26621606 15.18691204 9.94408019 13.4375 14.9375 C13.20353516 15.62134766 12.96957031 16.30519531 12.72851562 17.00976562 C12.15788171 18.67508501 11.57972902 20.33782493 11 22 C9.68 22 8.36 22 7 22 C4.69 14.74 2.38 7.48 0 0 Z " fill="#E4E4E5" transform="translate(440,337)"/>
<path d="M0 0 C0.70125 -0.02578125 1.4025 -0.0515625 2.125 -0.078125 C2.74375 0.03015625 3.3625 0.1384375 4 0.25 C4.66 1.24 5.32 2.23 6 3.25 C2.52176885 4.40941038 0.54104422 3.95820884 -3 3.25 C-5.54256655 5.79256655 -6.25728671 7.74475995 -6.375 11.25 C-6.24869902 13.75263052 -5.93357916 15.4315503 -5.0625 17.8125 C-1.99124287 19.95307315 0.55279091 19.18097434 4.13671875 18.609375 C4.75160156 18.49078125 5.36648438 18.3721875 6 18.25 C5 21.25 5 21.25 3 22.25 C0.3276379 22.38415472 -2.32250488 22.29318541 -5 22.25 C-5 21.59 -5 20.93 -5 20.25 C-5.99 19.92 -6.98 19.59 -8 19.25 C-10.65057806 15.18518734 -10.70317312 10.9461919 -10 6.25 C-7.21935074 1.80096118 -5.18212971 0.11431168 0 0 Z " fill="#F3F2F3" transform="translate(639,336.75)"/>
<path d="M0 0 C1.859375 0.24609375 1.859375 0.24609375 4 1 C5.72943913 3.52476762 6.74988987 6.1872522 8 9 C9.65 6.03 11.3 3.06 13 0 C13.99 0.33 14.98 0.66 16 1 C15.65066406 1.67804688 15.30132813 2.35609375 14.94140625 3.0546875 C11.81437794 9.45047911 10.17002133 14.87456062 10 22 C9.01 22 8.02 22 7 22 C6.95875 20.783125 6.9175 19.56625 6.875 18.3125 C6.18145234 11.63310251 2.99187647 5.91970665 0 0 Z " fill="#E8E8E9" transform="translate(646,337)"/>
<path d="M0 0 C5.28 0 10.56 0 16 0 C16 0.66 16 1.32 16 2 C14.02 2 12.04 2 10 2 C10 8.6 10 15.2 10 22 C9.01 22 8.02 22 7 22 C7 15.4 7 8.8 7 2 C4.69 2 2.38 2 0 2 C0 1.34 0 0.68 0 0 Z " fill="#F3F2F2" transform="translate(386,337)"/>
<path d="M0 0 C0.99 0 1.98 0 3 0 C3 6.6 3 13.2 3 20 C5.97 20 8.94 20 12 20 C12 20.66 12 21.32 12 22 C8.04 22 4.08 22 0 22 C0 14.74 0 7.48 0 0 Z " fill="#F8F7F7" transform="translate(478,337)"/>
<path d="M0 0 C2.64 0 5.28 0 8 0 C8.33 0.66 8.66 1.32 9 2 C7.02 2 5.04 2 3 2 C3 4.97 3 7.94 3 11 C4.65 11 6.3 11 8 11 C8 11.33 8 11.66 8 12 C6.35 12 4.7 12 3 12 C3 15.3 3 18.6 3 22 C2.01 22 1.02 22 0 22 C0 14.74 0 7.48 0 0 Z " fill="#EAE9EA" transform="translate(406,337)"/>
<path d="M0 0 C3.375 -0.125 3.375 -0.125 7 0 C7.66 0.66 8.32 1.32 9 2 C8.625 5.125 8.625 5.125 8 8 C5.36 8 2.72 8 0 8 C0 5.36 0 2.72 0 0 Z " fill="#35364B" transform="translate(409,339)"/>
<path d="M0 0 C0.99 0 1.98 0 3 0 C3 7.26 3 14.52 3 22 C2.01 22 1.02 22 0 22 C0 14.74 0 7.48 0 0 Z " fill="#E5E4E5" transform="translate(494,337)"/>
<path d="M0 0 C0.99 0 1.98 0 3 0 C3.33 1.98 3.66 3.96 4 6 C3.67 6 3.34 6 3 6 C2.67 11.28 2.34 16.56 2 22 C1.34 22 0.68 22 0 22 C0 14.74 0 7.48 0 0 Z " fill="#FFFFFE" transform="translate(609,337)"/>
<path d="M0 0 C2.0234375 0.43359375 2.0234375 0.43359375 4.0234375 3.43359375 C2.0234375 4.43359375 2.0234375 4.43359375 -1.4140625 3.80859375 C-4.81434547 3.10164892 -4.81434547 3.10164892 -6.8515625 4.49609375 C-8.35188937 7.07999003 -8.64920722 9.48739627 -8.9765625 12.43359375 C-10.5390625 11.24609375 -10.5390625 11.24609375 -11.9765625 9.43359375 C-11.89757401 6.3530425 -11.14937724 4.70001647 -9.4765625 2.12109375 C-6.22099932 -0.07641139 -3.848702 -0.00639319 0 0 Z " fill="#E2E1E3" transform="translate(535.9765625,336.56640625)"/>
<path d="M0 0 C0.70125 -0.02578125 1.4025 -0.0515625 2.125 -0.078125 C2.74375 0.03015625 3.3625 0.1384375 4 0.25 C4.66 1.24 5.32 2.23 6 3.25 C3 4.25 3 4.25 0.0625 3.5625 C-0.948125 3.459375 -1.95875 3.35625 -3 3.25 C-5.33454661 5.08358335 -5.33454661 5.08358335 -7 7.25 C-7.33 7.25 -7.66 7.25 -8 7.25 C-8.33 9.89 -8.66 12.53 -9 15.25 C-9.33 15.25 -9.66 15.25 -10 15.25 C-10.6271777 7.25348432 -10.6271777 7.25348432 -8.125 3.25 C-5.32342195 0.61322066 -3.75350263 0.08279785 0 0 Z " fill="#DBDADD" transform="translate(639,336.75)"/>
<path d="M0 0 C1.32 0.33 2.64 0.66 4 1 C5.265625 3.87109375 5.265625 3.87109375 6.25 7.4375 C6.58515625 8.61183594 6.9203125 9.78617187 7.265625 10.99609375 C8 14 8 14 8 16 C7.01 16 6.02 16 5 16 C3.35 10.72 1.7 5.44 0 0 Z " fill="#E9E9EA" transform="translate(440,337)"/>
<path d="M0 0 C2.31 0 4.62 0 7 0 C7 3.3 7 6.6 7 10 C5.02 10.99 5.02 10.99 3 12 C3 11.01 3 10.02 3 9 C3.66 9 4.32 9 5 9 C5 7.02 5 5.04 5 3 C3.35 3 1.7 3 0 3 C0 2.01 0 1.02 0 0 Z " fill="#E4E3E5" transform="translate(533,347)"/>
<path d="M0 0 C0 4.62 0 9.24 0 14 C-1.32 13.67 -2.64 13.34 -4 13 C-3.34 13 -2.68 13 -2 13 C-2 9.37 -2 5.74 -2 2 C-4.31 2 -6.62 2 -9 2 C-5.53785351 -0.05164237 -4.40610765 0 0 0 Z " fill="#4B4C5F" transform="translate(513,293)"/>
<path d="M0 0 C2.95183101 2.95183101 3.08663988 5.95511947 4 10 C1.69 10 -0.62 10 -3 10 C-2.01 6.7 -1.02 3.4 0 0 Z " fill="#2F3047" transform="translate(369,340)"/>
<path d="M0 0 C2.95183101 2.95183101 3.08663988 5.95511947 4 10 C1.69 10 -0.62 10 -3 10 C-2.01 6.7 -1.02 3.4 0 0 Z " fill="#2D2F46" transform="translate(558,340)"/>
<path d="M0 0 C1.65 0.33 3.3 0.66 5 1 C5.33 2.65 5.66 4.3 6 6 C4.68 6 3.36 6 2 6 C1.01 7.485 1.01 7.485 0 9 C-0.66 8.67 -1.32 8.34 -2 8 C-1.34 5.36 -0.68 2.72 0 0 Z " fill="#DBDADD" transform="translate(367,337)"/>
<path d="M0 0 C2.95183101 2.95183101 3.08663988 5.95511947 4 10 C2.02 10 0.04 10 -2 10 C-1.34 6.7 -0.68 3.4 0 0 Z " fill="#2F3148" transform="translate(431,340)"/>
<path d="M0 0 C4 1 4 1 5.484375 3.28515625 C5.90203125 4.20167969 6.3196875 5.11820312 6.75 6.0625 C7.17796875 6.98160156 7.6059375 7.90070313 8.046875 8.84765625 C8.36140625 9.55792969 8.6759375 10.26820313 9 11 C7.68 11 6.36 11 5 11 C3.35 7.37 1.7 3.74 0 0 Z " fill="#E4E4E5" transform="translate(646,337)"/>
<path d="M0 0 C2.33364352 2.92903058 4.04960836 5.88568203 5.6875 9.25 C6.12449219 10.14203125 6.56148437 11.0340625 7.01171875 11.953125 C7.33785156 12.62859375 7.66398438 13.3040625 8 14 C7.01 14 6.02 14 5 14 C4.1533966 12.61217515 3.32324661 11.21430603 2.5 9.8125 C2.0359375 9.03519531 1.571875 8.25789063 1.09375 7.45703125 C-0.10729647 4.75896614 -0.20741043 2.9193018 0 0 Z " fill="#EBEBEC" transform="translate(613,340)"/>
<path d="M0 0 C1.60080151 4.00200378 0.29279692 7.04556236 -1 11 C-2.32 11.33 -3.64 11.66 -5 12 C-4.54965877 10.37276701 -4.08944646 8.74826336 -3.625 7.125 C-3.36976563 6.22007812 -3.11453125 5.31515625 -2.8515625 4.3828125 C-2 2 -2 2 0 0 Z " fill="#D7D6D9" transform="translate(430,339)"/>
<path d="M0 0 C0.99 0 1.98 0 3 0 C2.25 6.625 2.25 6.625 0 10 C-0.66 10 -1.32 10 -2 10 C-1.54177532 6.53058454 -1.10868317 3.32604951 0 0 Z " fill="#D8D8DB" transform="translate(454,337)"/>
<path d="M0 0 C0.33 0.66 0.66 1.32 1 2 C1.66 2.33 2.32 2.66 3 3 C2.57692877 4.31722179 2.13602514 5.62872664 1.6875 6.9375 C1.44386719 7.66839844 1.20023438 8.39929688 0.94921875 9.15234375 C0 11 0 11 -3 12 C-2.68950274 10.56206608 -2.3765224 9.1246682 -2.0625 7.6875 C-1.88847656 6.88699219 -1.71445312 6.08648437 -1.53515625 5.26171875 C-1 3 -1 3 0 0 Z " fill="#D6D6D9" transform="translate(556,337)"/>
<path d="M0 0 C4.0311783 1.3437261 4.80130597 3.45371931 7 7 C7.99 8.485 7.99 8.485 9 10 C5.91085915 9.66902062 4.9973069 8.99715301 2.8125 6.6875 C1.20592291 4.30533398 0.41425314 2.79620867 0 0 Z " fill="#5E5E6D" transform="translate(692,186)"/>
<path d="M0 0 C0.99 0.33 1.98 0.66 3 1 C1.68 3.97 0.36 6.94 -1 10 C-1.99 10 -2.98 10 -4 10 C-2.8905928 6.51329166 -1.73662334 3.22515763 0 0 Z " fill="#F1F1F1" transform="translate(659,337)"/>
<path d="M0 0 C7.75 -0.125 7.75 -0.125 10 1 C9.67 1.99 9.34 2.98 9 4 C1.25 3.125 1.25 3.125 -1 2 C-0.67 1.34 -0.34 0.68 0 0 Z " fill="#EFEFEF" transform="translate(575,337)"/>
<path d="M0 0 C0.99 0.33 1.98 0.66 3 1 C2.02727325 2.35335895 1.0260734 3.68662604 0 5 C-0.33 5 -0.66 5 -1 5 C-1.33 7.64 -1.66 10.28 -2 13 C-2.33 13 -2.66 13 -3 13 C-3.4726477 4.80743982 -3.4726477 4.80743982 -1.5 1.4375 C-0.7575 0.7259375 -0.7575 0.7259375 0 0 Z " fill="#D8D7DA" transform="translate(572,339)"/>
<path d="M0 0 C0.99 1.32 1.98 2.64 3 4 C2.67 4.66 2.34 5.32 2 6 C1.77141886 8.0374763 1.58975722 10.08040303 1.4375 12.125 C1.35371094 13.22070312 1.26992188 14.31640625 1.18359375 15.4453125 C1.12300781 16.28835938 1.06242188 17.13140625 1 18 C0.67 18 0.34 18 0 18 C0 12.06 0 6.12 0 0 Z " fill="#545465" transform="translate(611,341)"/>
<path d="M0 0 C1.32 0.33 2.64 0.66 4 1 C4.33 3.64 4.66 6.28 5 9 C4.34 9 3.68 9 3 9 C2.67 6.69 2.34 4.38 2 2 C1.34 2 0.68 2 0 2 C0 1.34 0 0.68 0 0 Z " fill="#F1F0F0" transform="translate(557,337)"/>
<path d="M0 0 C3.375 -0.1875 3.375 -0.1875 7 0 C7.66 0.99 8.32 1.98 9 3 C6.45297384 4.27351308 5.5717055 3.80191925 2.875 3.0625 C2.15054688 2.86785156 1.42609375 2.67320312 0.6796875 2.47265625 C0.12539063 2.31667969 -0.42890625 2.16070312 -1 2 C-0.67 1.34 -0.34 0.68 0 0 Z " fill="#EAE9EA" transform="translate(531,337)"/>
<path d="M0 0 C2.875 -0.1875 2.875 -0.1875 6 0 C6.66 0.99 7.32 1.98 8 3 C4.23375329 4.25541557 2.62811066 3.37061958 -1 2 C-0.67 1.34 -0.34 0.68 0 0 Z " fill="#E1E0E2" transform="translate(637,337)"/>
<path d="M0 0 C0.66 0.33 1.32 0.66 2 1 C-0.31 3.31 -2.62 5.62 -5 8 C-5.66 7.34 -6.32 6.68 -7 6 C-4.69 4.02 -2.38 2.04 0 0 Z " fill="#172C42" transform="translate(107,273)"/>
<path d="M0 0 C0.33 0.66 0.66 1.32 1 2 C1.66 2.33 2.32 2.66 3 3 C2.67 4.32 2.34 5.64 2 7 C1.01 7 0.02 7 -1 7 C-0.67 4.69 -0.34 2.38 0 0 Z " fill="#DDDCDF" transform="translate(424,352)"/>
<path d="M0 0 C0.99 0 1.98 0 3 0 C3.33 1.98 3.66 3.96 4 6 C2.68 5.34 1.36 4.68 0 4 C0 2.68 0 1.36 0 0 Z " fill="#F9F8F8" transform="translate(609,337)"/>
</svg>
